<?xml version="1.0" encoding="utf-8"?>
<!-- Generator: Adobe Illustrator 22.0.1, SVG Export Plug-In . SVG Version: 6.00 Build 0)  -->
<svg version="1.1" id="Lager_1" xmlns="http://www.w3.org/2000/svg" xmlns:xlink="http://www.w3.org/1999/xlink" x="0px" y="0px"
	 viewBox="0 0 86.1 108.6" style="enable-background:new 0 0 86.1 108.6;" xml:space="preserve">
<style type="text/css">
	.st0{fill:#D94355;}
	.st1{fill:#BD4355;}
	.st2{fill:#FFDEAD;}
	.st3{fill:#FF9F84;}
	.st4{fill:#FFAB84;}
	.st5{fill:#CF1C5D;}
	.st6{fill:#AC1C58;}
	.st7{fill:#FFFFFF;}
	.st8{fill:#FFFAC5;}
	.st9{fill:#6C706E;}
	.st10{fill:#FF276C;}
	.st11{fill:#ED85A8;}
</style>
<g>
	<path class="st0" d="M24.8,78.4L7.6,61.3c-10.1-10.1-10.1-26.4,0-36.5L24.8,7.6c10.1-10.1,26.4-10.1,36.5,0l17.2,17.2
		c10.1,10.1,10.1,26.4,0,36.5L61.3,78.4C51.2,88.5,34.9,88.5,24.8,78.4z"/>
	<path class="st1" d="M78.9,51.1L61.8,68.3c-10.1,10.1-26.4,10.1-36.5,0L8.1,51.1C4,47,1.6,41.9,0.8,36.6C-1.3,45.1,1,54.4,7.6,61.1
		l17.2,17.2c10.1,10.1,26.4,10.1,36.5,0l17.2-17.2c6-6,8.4-14.2,7.3-22C84.6,43.5,82.4,47.7,78.9,51.1z"/>
	<g>
		<g>
			<g>
				<g>
					<g>
						<circle class="st2" cx="15.2" cy="61.7" r="10.5"/>
						<circle class="st3" cx="15.2" cy="61.7" r="4.3"/>
					</g>
					<g>
						<circle class="st2" cx="69.9" cy="61" r="10.5"/>
						<circle class="st3" cx="69.9" cy="61" r="4.3"/>
					</g>
				</g>
				<path class="st4" d="M42.5,108.6L42.5,108.6c-15.1,0-27.4-12.3-27.4-27.4V41.7h54.8v39.5C69.9,96.3,57.7,108.6,42.5,108.6z"/>
				<path class="st4" d="M65.4,96.4H21.7c-8.6,0-15.6-7-15.6-15.6l0,0c0-8.6,7-15.6,15.6-15.6h43.7c8.6,0,15.6,7,15.6,15.6l0,0
					C81,89.4,74,96.4,65.4,96.4z"/>
				<path class="st2" d="M42.5,105.1L42.5,105.1c-15.1,0-27.4-12.3-27.4-27.4v-36h54.8v35.9C69.9,92.8,57.7,105.1,42.5,105.1z"/>
				<path class="st2" d="M66.1,93.5H20.9C12.7,93.5,6,86.8,6,78.6l0,0c0-8.2,6.7-14.9,14.9-14.9h45.2c8.2,0,14.9,6.7,14.9,14.9l0,0
					C81,86.8,74.4,93.5,66.1,93.5z"/>
				<circle class="st5" cx="43.5" cy="83" r="14.3"/>
				<circle class="st6" cx="43.5" cy="84.1" r="8.9"/>
				<g>
					<ellipse cx="72.8" cy="72.5" rx="11" ry="9.3"/>
					<ellipse cx="13.2" cy="72.5" rx="11" ry="9.3"/>
					<g>
						<ellipse cx="42" cy="75.7" rx="14.8" ry="12.5"/>
						<ellipse cx="56.8" cy="74" rx="12.8" ry="10.9"/>
						<ellipse cx="29.2" cy="74" rx="12.8" ry="10.9"/>
					</g>
					<rect x="2.2" y="63.2" width="81.6" height="9.3"/>
				</g>
				<rect x="15.2" y="41.7" class="st3" width="54.8" height="6.8"/>
				<g>
					<path class="st7" d="M29.2,61.7L29.2,61.7c-3.3,0-6-2.7-6-6v-6.4c0-3.3,2.7-6,6-6l0,0c3.3,0,6,2.7,6,6v6.4
						C35.2,59,32.5,61.7,29.2,61.7z"/>
					<path d="M29.2,56L29.2,56c-1,0-1.8-0.8-1.8-1.8V51c0-1,0.8-1.8,1.8-1.8l0,0c1,0,1.8,0.8,1.8,1.8v3.2C31.1,55.2,30.3,56,29.2,56
						z"/>
					<path class="st7" d="M57.8,61.7L57.8,61.7c-3.3,0-6-2.7-6-6v-6.4c0-3.3,2.7-6,6-6l0,0c3.3,0,6,2.7,6,6v6.4
						C63.8,59,61.1,61.7,57.8,61.7z"/>
					<path d="M57.8,56L57.8,56c-1,0-1.8-0.8-1.8-1.8V51c0-1,0.8-1.8,1.8-1.8l0,0c1,0,1.8,0.8,1.8,1.8v3.2C59.7,55.2,58.8,56,57.8,56
						z"/>
				</g>
				<g>
					<circle class="st4" cx="43.6" cy="67" r="14.3"/>
					<ellipse class="st2" cx="43.6" cy="65.4" rx="14.3" ry="13"/>
					<circle class="st8" cx="47.9" cy="64" r="4.4"/>
				</g>
				<path d="M69.3,58.9c-0.2,0-0.3-0.1-0.3-0.3V41.7h8v9.5C77,55.5,73.5,58.9,69.3,58.9L69.3,58.9z"/>
				<path d="M16.1,58.9c-4.4,0-8-3.6-8-8v-9.2h8V58.9L16.1,58.9z"/>
			</g>
			<path class="st9" d="M77.5,68.7H65.6c-1,0-1.8-0.8-1.8-1.8l0,0c0-1,0.8-1.8,1.8-1.8h11.9c1,0,1.8,0.8,1.8,1.8l0,0
				C79.2,67.9,78.4,68.7,77.5,68.7z"/>
			<path class="st9" d="M19.2,68.7H7.3c-1,0-1.8-0.8-1.8-1.8l0,0c0-1,0.8-1.8,1.8-1.8h11.9c1,0,1.8,0.8,1.8,1.8l0,0
				C20.9,67.9,20.1,68.7,19.2,68.7z"/>
		</g>
		<path class="st9" d="M72.8,52.5L72.8,52.5c-1.4,0-2.5-1.1-2.5-2.5v-1.9c0-1.4,1.1-2.5,2.5-2.5l0,0c1.4,0,2.5,1.1,2.5,2.5V50
			C75.3,51.4,74.2,52.5,72.8,52.5z"/>
		<path class="st9" d="M12.1,52.5L12.1,52.5c-1.4,0-2.5-1.1-2.5-2.5v-1.9c0-1.4,1.1-2.5,2.5-2.5l0,0c1.4,0,2.5,1.1,2.5,2.5V50
			C14.6,51.4,13.5,52.5,12.1,52.5z"/>
	</g>
	<path class="st10" d="M6.2,37.1h72.7l0,0c0,2.6-2.1,4.7-4.7,4.7H10.8C8.3,41.7,6.2,39.6,6.2,37.1L6.2,37.1z"/>
	<path class="st10" d="M43,32.9c12.1,0,23-4.7,31.1-12.4L61.3,7.6C51.2-2.5,34.9-2.5,24.8,7.6L11.9,20.5C20,28.2,31,32.9,43,32.9z"
		/>
	<circle class="st0" cx="43.5" cy="23.9" r="10.4"/>
	<circle class="st7" cx="43.6" cy="20.5" r="10.4"/>
	<path class="st11" d="M67.8,21.9L67.8,21.9c-1.3,1.3-3.3,1.3-4.6,0l-6.3-6.3c-1.3-1.3-1.3-3.3,0-4.6l0,0c1.3-1.3,3.3-1.3,4.6,0
		l6.3,6.3C69.1,18.6,69.1,20.6,67.8,21.9z"/>
	<g>
		<path class="st10" d="M44.7,23.3L44.7,23.3c-0.6,0.7-1.7,0.7-2.3,0l-5-5.2c-0.6-0.7-0.6-1.8,0-2.4l0,0c0.6-0.7,1.7-0.7,2.3,0
			l5,5.2C45.4,21.5,45.4,22.6,44.7,23.3z"/>
		<g>
			<path class="st10" d="M38.6,25.9h-0.2c-0.9,0-1.6-0.7-1.6-1.6v-7.7c0-0.9,0.7-1.6,1.6-1.6h0.2c0.9,0,1.6,0.7,1.6,1.6v7.7
				C40.2,25.2,39.5,25.9,38.6,25.9z"/>
			<path class="st10" d="M48.4,25.9h0.2c0.9,0,1.6-0.7,1.6-1.6v-7.7c0-0.9-0.7-1.6-1.6-1.6h-0.2c-0.9,0-1.6,0.7-1.6,1.6v7.7
				C46.9,25.2,47.6,25.9,48.4,25.9z"/>
			<path class="st10" d="M42.4,23.3L42.4,23.3c0.6,0.7,1.7,0.7,2.3,0l5-5.2c0.6-0.7,0.6-1.8,0-2.4l0,0c-0.6-0.7-1.7-0.7-2.3,0
				l-5,5.2C41.7,21.5,41.7,22.6,42.4,23.3z"/>
		</g>
	</g>
</g>
</svg>
